<?xml version="1.0" encoding="utf-8"?>
<!-- Generator: Adobe Illustrator 21.1.0, SVG Export Plug-In . SVG Version: 6.00 Build 0)  -->
<svg version="1.1" id="Layer_1" xmlns="http://www.w3.org/2000/svg" xmlns:xlink="http://www.w3.org/1999/xlink" x="0px" y="0px"
	 viewBox="0 0 200 200" style="enable-background:new 0 0 200 200;" xml:space="preserve">
<style type="text/css">
	.st0{fill:#3D53C1;}
	.st1{fill:#607BEF;}
</style>
<path class="st0" d="M142.2,78.9c-0.9-1.9-1.6-3.9-2-6.1l-0.8-4.1c-0.3-1.6-0.6-3.1-1.1-4.5c0-0.2,0-0.2-0.2-0.2l-5.3-10.3
	C127,43.3,117.5,35.6,106.4,33c-0.6-0.2-1.4-0.3-2-0.5c-3.1-0.6-5.2-0.6-5.2-0.6H84.4c-18.4,0-34.8,10.6-41.9,26.9
	c-2.5,5.9-3.6,12-3.3,18.4c0,0.6,0.6,1.1,1.3,1.1s1.1-0.6,1.1-1.3c-0.3-5.9,0.8-11.7,3.1-17.3c6.6-15.5,22.2-25.5,39.7-25.5h14.8
	c0,0,1.9,0,4.8,0.6c0.6,0.2,1.3,0.3,2,0.5c10.5,2.5,19.5,9.7,24.8,19.7l5.5,10c0.5,1.4,0.8,2.8,0.9,4.2l0.8,4.1
	c0.5,2.3,1.1,4.7,2.2,6.7l9.7,20.3c0.3,0.6,0.3,1.6-0.2,2.2s-1.1,0.9-1.9,0.9h-8.1c-0.6,0-1.3,0.5-1.3,1.3V123c0,0.2,0,0.2,0,0.3
	c0,0,0.9,3.8-0.9,6.7c-1.3,1.9-3.4,3.1-6.7,3.6c-15.6,2.2-22.3-1.4-22.5-1.4c-0.5-0.2-0.9-0.2-1.3,0c-0.2,0.2-0.2,0.2-0.3,0.3
	c0,0.2-0.2,0.3-0.2,0.5l-4.7,34.2c-0.2,0.6,0.3,1.3,0.9,1.3h0.2c0.6,0,1.1-0.5,1.1-1.1l4.4-32.7c2.2,0.6,6.3,1.7,12.7,1.7
	c2.8,0,6.1-0.2,10-0.8c3.9-0.5,6.7-2,8.3-4.5c2.3-3.4,1.4-7.5,1.3-8.4v-17h7c1.6,0,3-0.8,3.8-2c0.8-1.4,0.9-3,0.3-4.4L142.2,78.9z"
	/>
<path class="st0" d="M34.7,170.5c-1.7-1.3-3.9-1.7-6.1-1.4c-4.4,0.8-7.3,5-6.6,9.4c0.3,2.2,1.6,4.1,3.3,5.3c1.4,0.9,3,1.6,4.7,1.6
	c0.5,0,0.9,0,1.4-0.2c4.4-0.8,7.3-5,6.6-9.4C37.7,173.6,36.4,171.7,34.7,170.5z M30.9,182.8c-1.6,0.3-3-0.2-4.4-0.9
	c-1.3-0.9-2-2.2-2.3-3.8c-0.5-3.1,1.6-6.1,4.7-6.7c0.3,0,0.6-0.2,0.9-0.2c1.3,0,2.3,0.3,3.3,1.1c1.3,0.9,2,2.2,2.3,3.8
	C36.3,179.2,34.1,182.2,30.9,182.8z"/>
<path class="st0" d="M93.1,61c-10.6-0.9-20,7-20.9,17.7s7,20,17.7,20.9c0.6,0,1.1,0,1.7,0c10,0,18.4-7.7,19.2-17.7
	C111.7,71.3,103.7,61.9,93.1,61z M108.3,81.6c-0.8,9.4-9.1,16.3-18.4,15.5c-9.2-0.6-16.1-8.9-15.3-18.3c0.8-8.9,8.1-15.6,16.9-15.6
	c0.5,0,0.9,0,1.4,0C102.2,63.9,109,72.2,108.3,81.6z"/>
<path class="st0" d="M102.8,109.8l-2.1,2.8l-48.2,65.2l-1.4,1.9l-0.4,2.5l-0.9,3.6l3.8-5.2l48.9-66.2l3-4.5c-1,1.2-0.3,0.5-0.2,0.5
	l-1-0.8L102.8,109.8z"/>
<path class="st0" d="M58.2,77.3l-0.1-1.4l-2.4,5.3L22.5,154l-1.4,3c-0.2,0.3-0.2,0.6,0,0.9l2.1-1.3l0,0c-0.1,0-0.2,0.1-0.3,0.1
	l0.9-1.8l33.9-73.1l1.2-2.5L58.2,77.3z"/>
<path class="st1" d="M11.5,187.5l0-0.1c0.4,0.8,0.8,1.3,1.3,1.9c0.2,0.3,0.5,0.4,0.9,0.6c0.4-0.1,0.7-0.1,1-0.3l1.1-1
	c0.5-0.6,1.6-0.6,2.3,0.1c0.6,0.5,0.6,1.6-0.1,2.3l-1.1,1c-0.3,0.2-0.4,0.5-0.3,0.9c0.1,0.4,0.1,0.7,0.5,0.9
	c3.1,2.4,6.8,4.1,10.7,4.6c0.3,0.2,0.7-0.1,1-0.3c0.3-0.2,0.4-0.5,0.5-1l0.1-1.5c0-0.8,0.8-1.7,1.6-1.7s1.7,0.8,1.7,1.6l-0.1,1.5
	c0.1,0.4,0.1,0.7,0.3,1c0.2,0.3,0.7,0.3,1,0.2c3.9-0.6,7.6-2,10.9-4.3c0.4-0.3,0.4-0.5,0.6-0.9c-0.1-0.4-0.1-0.7-0.3-1l-1-1.1
	c-0.3-0.4-0.5-0.6-0.5-1.1c0.1-0.5,0.2-0.8,0.5-1.2c0.5-0.6,1.6-0.6,2.3,0.1l1,1.1c0.2,0.3,0.5,0.4,0.9,0.3c0.4-0.1,0.7-0.1,0.9-0.5
	c0.2-0.3,0.4-0.7,0.6-0.9l0,0l0.9-2.5c1.1-2.1,2-4.5,2.2-6.8c0.2-0.3-0.1-0.7-0.3-1c-0.2-0.3-0.5-0.4-1-0.5l-1.5-0.1
	c-0.8,0-1.7-0.8-1.7-1.6c0-0.8,0.8-1.7,1.6-1.7l2.2,0.2c0.4-0.1,0.7-0.1,1-0.3c0.3-0.2,0.3-0.7,0.2-1c-0.6-3.9-2-7.6-4.3-10.9
	c-0.2-0.3-0.5-0.4-0.9-0.6c-0.4,0.1-0.7,0.1-1,0.3l-1.1,1c-0.5,0.6-1.6,0.6-2.3-0.1c-0.6-0.5-0.6-1.6,0.1-2.3l1.1-1
	c0.3-0.2,0.4-0.5,0.3-0.9c-0.1-0.4-0.1-0.7-0.5-0.9c-3.1-2.4-6.8-4.1-10.7-4.6c-0.3-0.2-0.7,0.1-1,0.3c-0.3,0.2-0.4,0.5-0.5,1
	l-0.1,1.5c0,0.8-0.8,1.7-1.6,1.7c-0.8,0-1.7-0.8-1.7-1.6l0.1-1.5c-0.1-0.4-0.1-0.7-0.3-1c-0.2-0.3-0.7-0.3-1-0.2
	c-3.9,0.6-7.6,2-10.9,4.3c-0.3,0.2-0.4,0.5-0.6,0.9c0.1,0.4,0.1,0.7,0.3,1l1,1.1c0.3,0.4,0.5,0.6,0.5,1.1c-0.1,0.5-0.2,0.8-0.5,1.2
	c-0.5,0.6-1.6,0.6-2.3-0.1l-1-1.1c-0.2-0.3-0.5-0.4-0.9-0.3c-0.4,0.1-0.7,0.1-0.9,0.5c-2.4,3.1-4.1,6.8-4.6,10.7
	c-0.2,0.3,0.1,0.7,0.3,1c0.2,0.3,0.5,0.4,1,0.5l1.5,0.1c0.8,0,1.7,0.8,1.7,1.6s-0.8,1.7-1.6,1.7l-1.5-0.1c-0.4,0.1-0.7,0.1-1,0.3
	c-0.3,0.2-0.3,0.7-0.2,1c0.1,0.7,0.3,1.4,0.3,2l0,0.6l1.6,3.6L11.5,187.5z M11,179.8c2.2-0.1,4.1-1.7,4.1-4.1
	c-0.1-2.2-1.7-4.1-4.1-4.1c0.5-2.5,1.7-4.8,3-6.9c1.5,1.7,4.2,1.6,5.7,0.1c0.8-0.8,1.3-1.8,1.3-2.9c0-1.1-0.4-2.2-1.2-2.8
	c2-1.4,4.5-2.3,7-2.8c0.1,2.2,1.7,4.1,4.1,4.1c2.2-0.1,4.1-1.7,4.1-4.1c2.5,0.5,4.8,1.7,6.9,3c-1.7,1.5-1.6,4.2-0.1,5.7
	c1.7,1.6,4.4,1.6,5.9,0c1.4,2,2.3,4.5,2.8,7c-2.2,0.1-4.1,1.7-4.1,4.1c0.1,2.2,1.7,4.1,4.1,4.1c-0.5,2.5-1.7,4.8-3,6.9
	c-1.5-1.7-4.2-1.6-5.7-0.1c-0.8,0.8-1.3,1.8-1.3,2.9c0,1.1,0.4,2.2,1.2,2.8c-2,1.4-4.5,2.3-7,2.8c-0.1-2.2-1.7-4.1-4.1-4.1
	c-2.2,0.1-4.1,1.7-4.1,4.1c-2.5-0.5-4.8-1.7-6.9-3c1.7-1.5,1.6-4.2,0.1-5.7c-1.5-1.7-4.2-1.6-5.7-0.1
	C12.4,184.6,11.4,182.2,11,179.8z"/>
<path class="st1" d="M67,103.9c0.1,1.4,0.8,2.7,1.8,3.5c0.4,0.3,0.9,0.6,1.3,0.7c1.6,0.6,3.5,0.3,4.9-0.7c-0.1,0.8,0,1.7,0.4,2.7
	c0.5,1.2,1.6,2.2,2.8,2.7c1.2,0.5,2.7,0.4,3.8-0.1c0.8-0.5,1.5-1,2-1.7c0.4,2.2,2.3,4,4.7,4.1c2.2,0.1,4.2-1.2,5.1-3.2
	c0-0.2,0-0.2,0.1-0.3c1.1,2.1,3.4,3.1,5.7,2.4c1.5-0.4,2.9-1.6,3.5-3.1c0.2-0.6,0.4-1.3,0.4-1.8c1.6,1.5,4.2,1.7,6.2,0.6
	c0.9-0.6,1.6-1.4,1.9-2.4c0.5-1.1,0.5-2.3,0.1-3.4c0.8,0.4,1.8,0.5,2.7,0.4c1.4-0.1,2.7-0.8,3.5-1.9c0.3-0.4,0.6-0.9,0.7-1.3
	c0.7-1.7,0.3-3.5-0.7-4.9c2.2,0.3,4.3-1,5.2-3l0.1-0.2l0.3-1.4l-0.1-2.2l0,0.1c0,0,0-0.2-0.1-0.2c-0.3-0.8-0.8-1.4-1.5-2
	c2-0.4,3.8-2.4,4-4.7c0.1-2.2-1.2-4.2-3.2-5.1c-0.2,0-0.2,0-0.3-0.1c0.8-0.5,1.4-1.2,1.9-1.9c0.7-1.2,0.9-2.5,0.6-3.8
	c-0.4-1.5-1.6-2.9-3.1-3.5c-0.6-0.2-1.3-0.4-1.8-0.4c1.5-1.6,1.7-4.2,0.6-6.2c-0.6-0.9-1.4-1.6-2.4-1.9c-1.1-0.5-2.3-0.5-3.4-0.1
	c0.4-0.8,0.5-1.8,0.4-2.7c-0.1-1.4-0.8-2.7-1.8-3.5c-0.4-0.3-0.9-0.6-1.3-0.7c-1.7-0.7-3.5-0.3-4.9,0.7c0.3-2.2-1-4.4-3.2-5.3
	c-0.2,0-0.3-0.1-0.5-0.1c-1.1-0.3-2.3-0.3-3.5,0.2c-0.8,0.5-1.5,1-2,1.7c-0.4-2.2-2.3-4-4.7-4.1c-2.2-0.1-4.3,1.2-5.1,3.2
	c0,0.2,0,0.2-0.1,0.3c-0.6-0.9-1.3-1.6-2.2-2L83.8,47l-2-0.1c-1.3,0.5-2.4,1.5-2.9,2.8c-0.2,0.6-0.4,1.3-0.4,1.8
	c-0.7-0.6-1.5-0.9-2.4-1.2c-1.3-0.2-2.7-0.1-3.8,0.6c-0.9,0.6-1.6,1.4-1.9,2.4c-0.5,1.1-0.5,2.3-0.1,3.4c-0.8-0.4-1.8-0.5-2.7-0.4
	c-1.4,0.1-2.7,0.8-3.5,1.8c-0.3,0.4-0.6,0.9-0.7,1.3C62.6,61.2,63,63,64,64.3c-0.8-0.1-1.7,0-2.7,0.4c-1.2,0.5-2.2,1.6-2.7,2.8
	s-0.4,2.7,0.1,3.8c0.5,0.8,1,1.5,1.7,2c-0.9,0.1-1.7,0.5-2.4,1.2c-1,0.9-1.7,2.1-1.7,3.5c-0.1,2.2,1.2,4.3,3.2,5.1
	c0.2,0,0.2,0,0.3,0.1c-1.9,1.2-3.1,3.4-2.4,5.7c0.4,1.5,1.6,2.9,3.1,3.5c0.6,0.2,1.3,0.4,1.8,0.4c-0.6,0.7-0.9,1.5-1.2,2.4
	c-0.2,1.3-0.1,2.7,0.6,3.8c0.6,0.9,1.4,1.6,2.4,1.9 M62,67.6c0.6-0.3,1.3-0.3,1.9-0.1l0.8,0.2c0.6,0.2,1.3-0.2,1.6-0.6
	c0.3-0.4,0.4-0.8,0.7-1.2c0.3-0.6,0.2-1.3-0.2-1.6l-0.7-0.6c-0.8-0.8-1.2-1.9-0.7-3c0.1-0.3,0.3-0.4,0.4-0.8
	c0.5-0.5,1.1-0.9,1.8-0.9c0.7-0.1,1.4,0.1,1.9,0.6l0.7,0.6c0.4,0.3,1.1,0.3,1.6-0.1c0.3-0.3,0.7-0.7,1.1-0.9c0.5-0.4,0.6-1,0.3-1.6
	L72.7,57c-0.5-0.7-0.6-1.6-0.2-2.3c0.1-0.5,0.6-0.9,1.1-1.3c0.6-0.3,1.2-0.5,2-0.3c0.6,0.2,1.2,0.5,1.6,1.2l0.5,0.7
	c0.4,0.5,1,0.6,1.6,0.5c0.4-0.2,0.8-0.5,1.2-0.5c0.6-0.2,1-0.9,0.8-1.5l-0.3-0.8c-0.2-0.6,0-1.1,0.1-1.5c0.2-0.8,0.9-1.3,1.8-1.5
	c1.3-0.3,2.8,0.5,3.1,1.8l0.3,0.8c0.2,0.6,0.8,0.9,1.3,0.9c0.4-0.1,0.9-0.1,1.4-0.1c0.5,0,1-0.6,1.2-1.2l0.1-0.8
	c0-0.2,0.1-0.5,0.2-0.8c0.5-1.1,1.4-1.7,2.6-1.7c1.4,0.1,2.6,1.3,2.5,2.8L95.5,52c0,0.7,0.4,1.1,1,1.3l0.5,0.1
	c0.3,0.1,0.6,0.2,1,0.3c0.6,0.2,1.3-0.2,1.4-0.8l0.2-0.8c0.2-0.6,0.7-1.2,1.5-1.5c0.6-0.3,1.3-0.3,1.9-0.1c1.4,0.6,2,2,1.4,3.4
	l-0.2,0.8c-0.2,0.6,0,1.2,0.6,1.6c0.4,0.3,0.8,0.4,1.2,0.7c0.2,0,0.2,0,0.3,0.1c0.5,0.1,1.1,0,1.4-0.5l0.6-0.7
	c0.8-0.8,1.9-1.2,3-0.7c0.3,0.1,0.4,0.3,0.8,0.4c0.5,0.5,0.9,1.1,0.9,1.8c0.1,0.7-0.1,1.4-0.6,1.9l-0.6,0.7
	c-0.3,0.4-0.4,1.3,0.1,1.6c0.3,0.3,0.7,0.7,0.9,1c0.4,0.5,1,0.6,1.6,0.3l0.7-0.5c0.7-0.5,1.6-0.6,2.3-0.2c0.5,0.1,0.9,0.6,1.3,1.1
	c0.7,1.2,0.4,2.9-0.9,3.6l-0.7,0.5c-0.5,0.4-0.6,1-0.5,1.6c0.2,0.4,0.5,0.8,0.5,1.2c0.2,0.6,0.8,0.9,1.5,0.8l0.8-0.3
	c0.6-0.2,1.1,0,1.5,0.1c0.8,0.2,1.3,0.9,1.5,1.8c0.1,0.7,0.1,1.4-0.2,2c-0.3,0.6-1,0.9-1.6,1.3l-0.8,0.3c-0.6,0.2-1.1,0.7-0.9,1.3
	c0,0.5,0.1,0.9,0.1,1.4c0,0.7,0.5,1.2,1.2,1.2l0.8,0.1c0.2,0,0.5,0.1,0.8,0.2c1.1,0.5,1.7,1.4,1.7,2.6c-0.1,1.4-1.3,2.6-2.8,2.5
	l-0.8-0.1c-0.7,0-1.2,0.5-1.4,1.2c-0.1,0.3-0.2,0.8-0.3,1.1c-0.2,0.6,0.2,1.3,0.8,1.4l0.8,0.2c0.6,0.2,1.2,0.7,1.5,1.5
	c0.3,0.6,0.3,1.3,0.1,1.9c-0.6,1-2.2,1.6-3.5,1.2l-0.8-0.2c-0.6-0.2-1.2,0-1.6,0.6c-0.3,0.4-0.4,0.8-0.7,1.2
	c-0.3,0.6-0.2,1.3,0.2,1.6l0.7,0.6c0.8,0.8,1.2,1.9,0.7,3c-0.1,0.3-0.3,0.4-0.4,0.8c-0.5,0.5-1.1,0.9-1.8,0.9
	c-0.7,0.1-1.3-0.2-1.9-0.6l-0.7-0.6c-0.6-0.3-1.3-0.4-1.6,0.1c-0.3,0.3-0.7,0.7-1,0.9c-0.5,0.4-0.6,1-0.3,1.6l0.5,0.7
	c0.5,0.7,0.6,1.6,0.2,2.3c-0.1,0.5-0.6,0.9-1.1,1.3c-1.2,0.7-2.7,0.4-3.6-0.9l-0.5-0.7c-0.4-0.5-1-0.6-1.6-0.5
	c-0.4,0.2-0.8,0.5-1.2,0.5c-0.6,0.2-0.9,0.8-0.8,1.5l0.2,0.9c0.2,0.6,0,1.1-0.1,1.5c-0.2,0.8-0.9,1.3-1.8,1.5
	c-1.3,0.3-2.8-0.5-3.1-1.8l-0.3-0.8c-0.2-0.6-0.8-0.9-1.3-0.9l-0.5,0c-0.4,0.1-0.5,0-0.9,0.1c-0.7,0-1.2,0.5-1.2,1.2l-0.1,0.8
	c-0.1,0.3-0.1,0.5-0.2,0.8c-0.5,1.1-1.4,1.7-2.6,1.7c-1.4-0.1-2.6-1.3-2.5-2.8l0.1-0.8c0-0.7-0.4-1.1-1-1.3c-0.5-0.1-1-0.3-1.3-0.2
	c-0.6-0.2-1.3,0.2-1.4,0.8l-0.2,0.8c-0.2,0.6-0.7,1.2-1.3,1.5c-0.6,0.3-1.3,0.3-1.9,0.1c-0.6-0.2-1.2-0.7-1.5-1.5
	c-0.3-0.6-0.3-1.3-0.1-1.9l0.2-0.8c0.2-0.6,0-1.2-0.6-1.6c-0.4-0.3-0.8-0.4-1.2-0.7c-0.6-0.3-1.3-0.2-1.6,0.2l-0.6,0.7
	c-0.8,0.8-1.9,1.2-3,0.7c-0.3-0.1-0.4-0.3-0.8-0.4c-0.5-0.5-0.9-1.1-0.9-1.7c-0.1-0.7,0.1-1.4,0.6-1.9l0.6-0.7
	c0.3-0.4,0.3-1.1-0.1-1.6c-0.3-0.3-0.7-0.7-0.9-1.1c-0.4-0.5-1-0.6-1.6-0.3l-0.7,0.5c-0.7,0.5-1.6,0.6-2.3,0.2
	c-0.5-0.1-0.9-0.6-1.3-1.1c-0.3-0.6-0.5-1.4-0.3-2c0.2-0.6,0.5-1.2,1.2-1.6l0.7-0.5c0.6-0.3,0.6-1,0.5-1.6c-0.2-0.4-0.5-0.8-0.5-1.2
	c-0.2-0.6-0.9-1-1.5-0.8l-0.8,0.3c-0.6,0.2-1.1,0-1.5-0.1c-0.8-0.2-1.5-0.9-1.6-1.7c-0.3-1.3,0.5-2.8,1.8-3.1l0.9-0.8
	c0.6-0.2,1.1-0.7,0.9-1.5c-0.1-0.4-0.1-0.9-0.1-1.4c0-0.7-0.5-1.2-1.2-1.2l-0.8-0.1c-0.2,0-0.5-0.1-0.8-0.2
	c-1.1-0.5-1.7-1.4-1.7-2.6c0-0.7,0.4-1.3,0.9-1.8c0.5-0.5,1.2-0.7,1.9-0.7l0.8,0.1c0.6,0.3,1.1-0.2,1.3-0.8c0.1-0.3,0.2-0.8,0.2-1.2
	c0.2-0.6-0.2-1.3-0.8-1.4l-0.8-0.2c-0.6-0.2-1.2-0.7-1.5-1.3c-0.3-0.6-0.3-1.3-0.1-1.9C60.7,68.4,61.2,67.9,62,67.6z"/>
</svg>
